<svg width="465" height="76" viewBox="0 0 465 76" fill="none" xmlns="http://www.w3.org/2000/svg">
<path fill-rule="evenodd" clip-rule="evenodd" d="M0.300049 1.7999H29.3001C39.2176 1.7999 47.5328 5.3267 54.1646 12.2677C60.8968 19.2087 64.2 27.8151 64.2 37.9999C64.2 48.1845 60.8969 56.7908 54.165 63.7318C47.5331 70.673 39.2178 74.1999 29.3001 74.1999H0.300049V1.7999ZM53.3 13.0999C46.9001 6.39991 38.9 2.9999 29.3001 2.9999H1.50005V72.9999H29.3001C38.9 72.9999 46.9001 69.5999 53.3 62.8999C59.8001 56.1999 63 47.8999 63 37.9999C63 28.0999 59.8001 19.7999 53.3 13.0999ZM44.1001 22.2999C40.3 18.1999 35.4 16.1999 29.3001 16.1999H15.3V59.7999H29.3001C35.4 59.7999 40.3 57.7999 44.1001 53.7999C47.9001 49.6999 49.8001 44.4999 49.8001 37.9999C49.8001 31.4999 47.9001 26.2999 44.1001 22.2999ZM16.5 58.5999H29.3001C35.1035 58.5999 39.6754 56.7124 43.2249 52.9788C46.7861 49.1337 48.6001 44.2415 48.6001 37.9999C48.6001 31.7518 46.7827 26.866 43.2301 23.1264L43.225 23.121L43.2199 23.1156C39.672 19.2876 35.1046 17.3999 29.3001 17.3999H16.5V58.5999ZM116.089 59.7999V72.9999H72.7891V2.9999H115.589V16.1999H86.5891V31.0999H113.089V44.0999H86.5891V59.7999H116.089ZM87.7891 58.5999H117.289V74.1999H71.5891V1.7999H116.789V17.3999H87.7891V29.8999H114.289V45.2999H87.7891V58.5999ZM152.216 31.7999L157.016 33.3999C158.116 33.6999 159.616 34.2999 161.516 35.0999C163.416 35.7999 164.916 36.4999 165.916 37.1999C168.016 38.4999 171.216 40.9999 172.516 43.3999C174.016 45.7999 175.116 49.2999 175.116 53.2999C175.116 59.7999 172.716 64.8999 168.016 68.6999C163.316 72.4999 157.216 74.3999 149.716 74.3999C135.816 74.3999 126.116 67.7999 122.216 57.0999L134.016 50.1999C134.162 50.5836 134.316 50.957 134.478 51.3202C137.308 57.6785 142.549 60.8999 150.116 60.8999C157.816 60.8999 161.316 57.7999 161.316 53.4999C161.316 50.9999 160.216 49.0999 158.016 47.7999C155.816 46.3999 151.916 44.8999 146.216 43.2999C139.916 41.3999 136.116 39.8999 131.716 36.7999C127.416 33.5999 125.116 28.7999 125.116 22.3999C125.116 16.0999 127.316 10.9999 131.816 7.29991C136.316 3.4999 141.816 1.5999 148.116 1.5999C159.416 1.5999 168.316 7.3999 173.116 17.2999L161.516 23.9999C161.344 23.63 161.165 23.2715 160.979 22.9244C158.156 17.6414 153.84 14.9999 148.116 14.9999C142.416 14.9999 138.916 17.8999 138.916 21.9999C138.916 24.1999 139.816 25.9999 141.616 27.3999C143.516 28.6999 147.016 30.1999 152.216 31.7999ZM142.325 26.4303C144.075 27.6183 147.419 29.0682 152.569 30.653L152.583 30.6571L157.365 32.2512C158.546 32.5769 160.099 33.2013 161.957 33.9834C163.859 34.6854 165.454 35.4182 166.576 36.197C167.674 36.8791 169.043 37.8624 170.313 38.99C171.57 40.1054 172.804 41.4272 173.554 42.7952C175.171 45.3981 176.316 49.1086 176.316 53.2999C176.316 60.1417 173.768 65.5926 168.771 69.6331C163.81 73.6441 157.423 75.5999 149.716 75.5999C135.392 75.5999 125.187 68.7552 121.089 57.5108L120.746 56.5697L134.634 48.4485L135.138 49.7734C136.415 53.1317 138.299 55.5874 140.744 57.2132C143.192 58.842 146.297 59.6999 150.116 59.6999C153.83 59.6999 156.349 58.9486 157.906 57.8359C159.413 56.76 160.116 55.2822 160.116 53.4999C160.116 51.4357 159.251 49.923 157.406 48.833L157.389 48.8229L157.372 48.8123C155.332 47.5143 151.581 46.0521 145.892 44.4553L145.881 44.4521L145.87 44.4488C139.519 42.5334 135.578 40.9885 131.025 37.7809L131.013 37.7719L131 37.7626C126.352 34.3036 123.916 29.1211 123.916 22.3999C123.916 15.7916 126.24 10.3341 131.048 6.37783C135.783 2.38214 141.562 0.399902 148.116 0.399902C159.887 0.399902 169.2 6.47207 174.196 16.7764L174.683 17.7808L160.983 25.6939L160.429 24.5074C159.101 21.6617 157.405 19.6004 155.386 18.2466C153.372 16.8964 150.962 16.1999 148.116 16.1999C145.458 16.1999 143.441 16.8767 142.117 17.9088C140.817 18.9219 140.116 20.3245 140.116 21.9999C140.116 23.8027 140.824 25.252 142.325 26.4303ZM182.429 74.1999V1.7999H198.629V74.1999H182.429ZM197.429 72.9999H183.629V2.9999H197.429V72.9999ZM242.787 34.1999H280.287V40.7999C280.287 51.0812 276.985 59.5071 270.322 65.9618C263.666 72.4092 255.052 75.5999 244.687 75.5999C233.602 75.5999 224.29 71.9964 216.944 64.7544L216.938 64.7485C209.609 57.4189 205.987 48.5117 205.987 38.0999C205.987 27.591 209.606 18.6864 216.832 11.3574L216.838 11.3514C224.174 4.01574 233.184 0.399902 243.887 0.399902C257.376 0.399902 269.18 6.99361 275.413 17.2779L276.049 18.3271L262.148 26.3376L261.548 25.3011C258.497 20.0305 251.731 16.1999 243.787 16.1999C237.378 16.1999 232.198 18.2915 228.145 22.4386L228.135 22.4485C224.089 26.4948 222.087 31.6754 222.087 38.0999C222.087 44.4048 224.176 49.5899 228.23 53.6466C232.363 57.6829 237.839 59.6999 244.787 59.6999C249.952 59.6999 254.184 58.4937 257.399 56.3623C260.167 54.5267 262.231 51.9728 263.498 48.7999H242.787V34.1999ZM265.187 47.5999C265.064 48.0079 264.93 48.408 264.784 48.7999C261.97 56.3794 254.961 60.8999 244.787 60.8999C237.587 60.8999 231.787 58.7999 227.387 54.4999C223.087 50.1999 220.887 44.6999 220.887 38.0999C220.887 31.3999 222.987 25.8999 227.287 21.5999C231.587 17.1999 237.087 14.9999 243.787 14.9999C252.084 14.9999 259.283 18.9976 262.584 24.695C262.585 24.6967 262.586 24.6983 262.587 24.6999L274.387 17.8999C274.179 17.5573 273.965 17.219 273.745 16.8849C267.596 7.56466 256.534 1.5999 243.887 1.5999C233.487 1.5999 224.787 5.09991 217.687 12.1999C210.687 19.2999 207.187 27.8999 207.187 38.0999C207.187 48.1999 210.687 56.7999 217.787 63.8999C224.887 70.8999 233.887 74.3999 244.687 74.3999C254.787 74.3999 263.087 71.2999 269.487 65.0999C275.887 58.8999 279.087 50.7999 279.087 40.7999V35.3999H243.987V47.5999H265.187ZM299.402 2.9999L329.402 45.6999V2.9999H343.202V72.9999H332.702L302.702 30.1999V72.9999H288.902V2.9999H299.402ZM303.902 34.0026V74.1999H287.702V1.7999H300.026L328.202 41.9045V1.7999H344.402V74.1999H332.078L303.902 34.0026ZM399.488 59.7999V72.9999H356.188V2.9999H398.988V16.1999H369.988V31.0999H396.488V44.0999H369.988V59.7999H399.488ZM371.188 58.5999H400.688V74.1999H354.988V1.7999H400.188V17.3999H371.188V29.8999H397.688V45.2999H371.188V58.5999ZM464.611 74.1999H446.924L432.824 49.8999H424.215V74.1999H408.015V1.7999H437.215C444.032 1.7999 449.838 4.22573 454.563 8.95138C459.287 13.675 461.715 19.4797 461.715 26.1999C461.715 34.963 456.541 43.0087 448.705 47.1082L464.611 74.1999ZM447.015 46.5999C447.381 46.4326 447.742 46.2566 448.097 46.0721C455.592 42.1752 460.515 34.5066 460.515 26.1999C460.515 19.7999 458.215 14.2999 453.715 9.7999C449.215 5.2999 443.715 2.9999 437.215 2.9999H409.215V72.9999H423.015V48.6999H433.515L447.615 72.9999H462.515L447.015 46.5999ZM445.515 26.1999C445.515 21.0743 441.667 17.0999 437.215 17.0999H424.215V35.3999H437.215C441.653 35.3999 445.515 31.3411 445.515 26.1999ZM446.715 26.1999C446.715 20.4999 442.415 15.8999 437.215 15.8999H423.015V36.5999H437.215C442.415 36.5999 446.715 31.8999 446.715 26.1999Z" fill="white"/>
</svg>
