<svg width="153" height="48" viewBox="0 0 153 48" fill="none" xmlns="http://www.w3.org/2000/svg">
<g opacity="0.8">
<g opacity="0.7">
<path fill-rule="evenodd" clip-rule="evenodd" d="M76.0396 33.4063C74.8962 34.3106 73.5208 34.9141 72.0343 34.9141C69.9734 34.9141 68.6762 34.046 68.6762 31.9002C68.6762 28.735 71.6912 26.6236 76.0396 27.7552V33.4063ZM80.999 37.6278C80.695 36.4962 80.6181 34.5747 80.6181 32.9927V24.3639C80.6181 18.7496 78.062 16.9409 72.5673 16.9409C70.394 16.9409 68.6377 17.3925 66.6531 18.2595L66.1195 21.0859C67.99 20.1056 70.2023 19.6914 72.3383 19.6914C76.23 19.6914 76.0396 22.7059 76.0396 25.6071C70.698 23.9859 63.9066 26.0225 64.0604 32.4657C64.1367 36.12 66.8435 38.0414 70.2402 38.1162C72.5673 38.1542 74.5128 37.2492 76.1147 35.628L76.4596 37.6278H80.999Z" fill="#FEFEFE"/>
<path fill-rule="evenodd" clip-rule="evenodd" d="M110.646 37.6278C110.308 36.8923 110.265 34.5747 110.265 32.9927V24.3639C110.265 18.7496 107.732 16.9409 102.236 16.9409C100.063 16.9409 98.2854 17.3714 96.2997 18.2384L95.7667 21.0859C96.4706 20.7175 97.2233 20.4275 98.0016 20.2099C99.2927 19.8517 100.654 19.6914 101.985 19.6914C105.876 19.6914 105.686 22.7059 105.686 25.6071C100.344 23.9859 93.5551 26.0225 93.7071 32.4657C93.7828 36.12 96.4919 38.0414 99.8885 38.1162C102.214 38.1542 104.181 37.2492 105.785 35.628C105.785 35.628 105.886 36.9092 106.106 37.6278C107.123 37.6278 110.646 37.6278 110.646 37.6278ZM105.686 33.4063C104.543 34.3106 103.168 34.9141 101.68 34.9141C99.6193 34.9141 98.3239 34.046 98.3239 31.9002C98.3239 28.735 101.338 26.6236 105.686 27.7552V33.4063Z" fill="#FEFEFE"/>
<path fill-rule="evenodd" clip-rule="evenodd" d="M7.44026 20.9879C3.29348 19.19 0.528564 15.6623 0.528564 12.1851C0.528564 12.1546 0.528564 12.1252 0.529719 12.0947C0.56897 9.25871 2.38781 6.97112 5.64913 5.64648C6.03126 5.84612 8.28648 7.07799 11.0629 9.73255C14.513 13.0306 17.1423 16.9546 18.8815 21.3971C18.6015 21.5926 17.6906 22.1546 16.1425 22.4305C14.4016 22.7411 11.4785 22.7429 7.44026 20.9879Z" fill="#FEFEFE"/>
<path fill-rule="evenodd" clip-rule="evenodd" d="M30.6798 27.4206C32.2228 29.0345 32.9991 30.7844 32.9991 32.6424C32.9991 33.2586 32.9123 33.886 32.7416 34.5252C32.2917 36.2049 31.3561 37.5095 30.8571 38.1176C28.6947 29.3364 24.546 25.2408 23.1168 24.0494C24.2891 23.8897 27.326 23.9127 30.6798 27.4206Z" fill="#FEFEFE"/>
<path fill-rule="evenodd" clip-rule="evenodd" d="M24.2918 41.4034C21.8654 39.155 21.7048 33.3583 21.7048 30.5127C21.7048 30.2702 21.7061 30.0496 21.7074 29.8543L21.7086 29.2023C21.7086 29.1428 21.7086 29.0826 21.7086 29.0248C21.7086 27.286 21.9277 25.9609 22.0369 25.4116C27.3561 29.0708 29.99 38.3077 30.1754 38.9803C29.526 42.682 26.8698 42.3545 26.7568 42.3392L26.7403 42.3368H26.7251C25.7849 42.3439 24.966 42.0294 24.2918 41.4034Z" fill="#FEFEFE"/>
<path fill-rule="evenodd" clip-rule="evenodd" d="M0.540193 35.7596C0.532635 35.6392 0.528564 35.5177 0.528564 35.3974C0.528564 32.7136 2.31594 30.0797 5.72033 27.7594C10.0446 24.8125 13.4321 24.0929 15.5131 24.0096C17.336 23.9343 18.4983 24.3208 18.8815 24.4739C16.2021 31.1955 12.728 35.7 10.2754 38.3005C7.87053 40.8512 5.96163 42.1134 5.58311 42.3529C2.57876 40.8001 0.694278 38.3412 0.540193 35.7596Z" fill="#FEFEFE"/>
<path fill-rule="evenodd" clip-rule="evenodd" d="M11.1789 38.5101C13.7041 35.8645 17.1756 31.4615 19.5532 25.4116C20.0859 27.1202 20.293 28.8944 20.293 30.6047C20.293 32.9755 19.9037 35.2249 19.4669 37.0043C18.6177 40.4539 17.4058 42.941 17.3937 42.9659C17.3688 43.0217 15.0927 47.9998 11.2822 47.9998C7.79061 47.9998 6.38316 43.6009 6.17542 42.8736C6.63404 42.5622 8.69813 41.111 11.1789 38.5101Z" fill="#FEFEFE"/>
<path fill-rule="evenodd" clip-rule="evenodd" d="M28.2159 14.1118C29.1945 12.0961 29.648 10.5066 29.8051 9.88232C30.2295 10.2255 31.1479 11.1121 31.4699 12.5787C31.5479 12.9343 31.5872 13.3008 31.5872 13.6781C31.5872 15.0832 31.0443 16.6277 29.9649 18.2866C28.3848 20.7206 26.4008 22.1837 24.2283 22.5155C23.0875 22.6902 22.1652 22.5109 21.7048 22.3852C25.0716 19.6769 27.1006 16.4081 28.2159 14.1118Z" fill="#FEFEFE"/>
<path fill-rule="evenodd" clip-rule="evenodd" d="M21.7048 17.3825C21.7048 16.9828 21.7148 16.5869 21.7342 16.207L21.7582 15.7333C21.886 13.1024 22.225 6.11726 24.8608 3.66513C25.5247 3.04778 26.301 2.76717 27.1695 2.83316C27.2704 2.8455 29.8435 3.20998 30.1754 7.58816C30.1091 7.86323 29.599 9.91201 28.3857 12.5017C27.2223 14.9859 25.1605 18.4723 21.9013 21.1766C21.835 20.4822 21.7048 18.92 21.7048 17.3825Z" fill="#FEFEFE"/>
<path fill-rule="evenodd" clip-rule="evenodd" d="M9.00259 0.55114C9.89176 0.00807026 10.9059 -0.134874 12.0199 0.127689C14.34 0.67016 16.3378 2.47341 17.7937 5.34127C19.3399 8.38497 20.204 12.5226 20.2906 17.3055C20.2906 17.3091 20.293 17.3695 20.293 17.476C20.293 17.9898 20.2467 19.5855 19.7403 21.1764C19.4148 20.2721 18.5665 18.1501 16.9838 15.6099C15.0586 12.5196 11.6238 8.16368 6.17542 4.89629C6.32412 4.33827 7.11273 1.70726 9.00259 0.55114Z" fill="#FEFEFE"/>
<path fill-rule="evenodd" clip-rule="evenodd" d="M152.999 12.7065C152.999 11.8825 152.725 11.2153 152.176 10.7057C151.627 10.1167 150.958 9.88232 150.175 9.88232C149.353 9.88232 148.685 10.157 148.176 10.7057C147.81 11.045 147.566 11.4548 147.444 11.9324C147.383 12.1725 147.352 12.4299 147.352 12.7065C147.352 13.4908 147.628 14.1573 148.176 14.7066C148.685 15.256 149.353 15.5294 150.175 15.5294C150.958 15.5294 151.627 15.2938 152.176 14.7066C152.725 14.1573 152.999 13.4908 152.999 12.7065Z" fill="#FEFEFE"/>
<path fill-rule="evenodd" clip-rule="evenodd" d="M152.999 36.7056C152.693 36.0974 152.645 34.1668 152.645 31.7371V21.1474C152.645 18.9348 152.855 16.9409 150.809 16.9409C150.149 16.9409 148.865 17.4237 147.352 18.2442C148.142 18.7857 148.446 19.865 148.446 22.1978V31.7737C148.446 34.5341 148.433 36.0603 148.091 36.7056H152.999Z" fill="#FEFEFE"/>
<path fill-rule="evenodd" clip-rule="evenodd" d="M140.496 38.1173C138.405 38.1173 136.921 37.486 135.969 36.2608C135.322 35.406 134.979 33.8456 134.979 31.6171V20.5801H131.822V18.1679L134.979 17.7958L135.322 13.004L139.508 12.7056V17.832H144.683V20.5801H139.508V31.7651C139.508 33.8831 140.421 34.9239 142.172 34.9239C143.275 34.9239 144.378 34.663 145.558 34.0679L145.94 36.6686C144.037 37.6346 142.209 38.1173 140.496 38.1173Z" fill="#FEFEFE"/>
<path fill-rule="evenodd" clip-rule="evenodd" d="M125.334 38.1173C125.5 37.7009 125.505 36.7282 125.522 35.6194C125.536 34.7632 125.536 33.7394 125.536 32.5345V24.4506C125.536 21.678 124.69 20.4066 122.654 20.4066C121.08 20.4066 119.238 21.5228 117.778 22.8336V32.9959C117.778 34.1601 117.798 35.235 117.841 36.1258C117.885 37.0024 117.952 37.6954 118.047 38.1173H113.017C113.207 37.2703 113.247 35.5769 113.247 33.1499V22.6402C113.247 20.0598 112.832 19.0218 112.058 18.5197C113.848 17.6216 114.943 17.1732 115.759 17.1732C117.247 17.1732 117.584 18.4877 117.623 20.1374C119.392 18.3282 121.886 16.9409 124.229 16.9409C126.532 16.9409 128.223 17.7503 129.257 19.4056C129.491 19.7918 129.673 20.2858 129.807 20.8889C130.007 21.7864 130.105 22.9303 130.105 24.3342V32.9201C130.105 36.3174 130.249 37.7391 130.41 38.1173H125.334Z" fill="#FEFEFE"/>
<path fill-rule="evenodd" clip-rule="evenodd" d="M94.4968 20.6006C94.1676 20.5618 93.8391 20.5618 93.4006 20.5618C92.0128 20.5618 90.6249 21.3312 89.2733 22.9476V33.3039C89.2733 36.3457 89.3855 37.7674 89.5288 38.1173H84.742C84.8098 37.7995 84.8577 37.4071 84.8899 36.9525C84.9606 35.973 84.9606 34.7108 84.9606 33.3414V22.6402C84.9606 20.2926 84.5947 18.9941 83.8224 18.5197C85.1945 17.7639 86.4987 17.1732 87.3417 17.1732C88.8015 17.1732 89.0891 18.5974 89.0891 20.1774C90.4413 18.0202 92.1221 16.9409 94.0589 16.9409C94.4243 16.9409 94.7891 16.981 95.1165 17.0586L94.4968 20.6006Z" fill="#FEFEFE"/>
<path fill-rule="evenodd" clip-rule="evenodd" d="M59.4958 13.2889C57.3227 12.3989 55.0418 11.9548 52.7226 11.9548C49.7539 11.9548 47.4283 13.0298 45.4719 15.1039C43.5156 17.2177 42.5391 19.9216 42.5391 23.1827C42.5391 26.7415 43.4066 29.5936 45.181 31.6695C46.9207 33.7447 49.2103 34.8192 52.3251 34.8192C53.9552 34.8192 55.295 34.5962 56.4164 34.1515V27.1495C56.4164 26.6692 56.4088 26.2257 56.3943 25.8142H52.7383C52.6861 24.5743 52.5273 23.2728 52.339 22.5163L61.2343 22.827C60.908 23.9025 60.8727 25.2206 60.8727 27.4809V31.0759C60.8727 33.5965 61.0176 35.3006 61.2343 36.1533C58.1554 37.4506 55.0771 38.1177 51.9623 38.1177C47.3617 38.1177 43.8128 36.8185 41.2422 34.2256C38.7069 31.6327 37.2344 28.1581 37.2344 23.7116C37.2344 19.2278 38.8164 15.5498 41.6397 12.6966C44.4294 9.88071 48.1232 8.4707 52.7226 8.4707C56.6667 8.4707 58.0865 8.98715 60.1877 9.72833L59.4958 13.2889Z" fill="#FEFEFE"/>
</g>
</g>
</svg>
