<svg width="581" height="96" viewBox="0 0 581 96" fill="none" xmlns="http://www.w3.org/2000/svg">
<path d="M55.8 4V2.8H55.123L54.7729 3.37941L55.8 4ZM35.8 37.1L34.7743 37.7229L35.8026 39.4161L36.8271 37.7206L35.8 37.1ZM15.7 4L16.7257 3.37714L16.3752 2.8H15.7V4ZM1.5 4V2.8H0.300001V4H1.5ZM1.5 74H0.300001V75.2H1.5V74ZM15.3 74V75.2H16.5V74H15.3ZM15.3 28.7L16.3253 28.0766L14.1 24.4166V28.7H15.3ZM35 61.1L33.9747 61.7234L34.3252 62.3H35V61.1ZM36.6 61.1V62.3H37.2759L37.6262 61.722L36.6 61.1ZM56.3 28.6H57.5V24.3053L55.2738 27.978L56.3 28.6ZM56.3 74H55.1V75.2H56.3V74ZM70 74V75.2H71.2V74H70ZM70 4H71.2V2.8H70V4ZM54.7729 3.37941L34.7729 36.4794L36.8271 37.7206L56.8271 4.62058L54.7729 3.37941ZM36.8257 36.4771L16.7257 3.37714L14.6743 4.62285L34.7743 37.7229L36.8257 36.4771ZM15.7 2.8H1.5V5.2H15.7V2.8ZM0.300001 4V74H2.7V4H0.300001ZM1.5 75.2H15.3V72.8H1.5V75.2ZM16.5 74V28.7H14.1V74H16.5ZM14.2747 29.3234L33.9747 61.7234L36.0253 60.4766L16.3253 28.0766L14.2747 29.3234ZM35 62.3H36.6V59.9H35V62.3ZM37.6262 61.722L57.3262 29.222L55.2738 27.978L35.5738 60.478L37.6262 61.722ZM55.1 28.6V74H57.5V28.6H55.1ZM56.3 75.2H70V72.8H56.3V75.2ZM71.2 74V4H68.8V74H71.2ZM70 2.8H55.8V5.2H70V2.8ZM103.943 57.6L102.824 58.033L104.032 61.1558L105.082 57.9764L103.943 57.6ZM90.943 24L92.0621 23.567L91.7654 22.8H90.943V24ZM76.843 24V22.8H75.0315L75.738 24.468L76.843 24ZM97.343 72.4L98.4746 72.7994L98.6294 72.3605L98.4479 71.932L97.343 72.4ZM84.243 82L84.2604 80.8001L83.043 80.7825V82H84.243ZM84.243 94H83.043V95.1362L84.1774 95.1982L84.243 94ZM110.643 74L109.515 73.5895L109.514 73.5924L110.643 74ZM128.843 24L129.971 24.4105L130.557 22.8H128.843V24ZM115.043 24V22.8H114.176L113.904 23.6236L115.043 24ZM105.062 57.167L92.0621 23.567L89.8238 24.433L102.824 58.033L105.062 57.167ZM90.943 22.8H76.843V25.2H90.943V22.8ZM75.738 24.468L96.238 72.868L98.4479 71.932L77.9479 23.532L75.738 24.468ZM96.2114 72.0006C95.0559 75.2744 93.6163 77.4548 91.7669 78.8227C89.929 80.1821 87.5389 80.8476 84.2604 80.8001L84.2256 83.1999C87.8471 83.2524 90.807 82.5179 93.1941 80.7523C95.5696 78.9952 97.23 76.3256 98.4746 72.7994L96.2114 72.0006ZM83.043 82V94H85.443V82H83.043ZM84.1774 95.1982C90.8006 95.5604 96.3965 94.1114 101.016 90.6199C105.615 87.1446 109.125 81.7378 111.772 74.4076L109.514 73.5924C106.961 80.6622 103.671 85.6054 99.5695 88.7051C95.4895 91.7886 90.4853 93.1396 84.3085 92.8018L84.1774 95.1982ZM111.771 74.4105L129.971 24.4105L127.715 23.5895L109.515 73.5895L111.771 74.4105ZM128.843 22.8H115.043V25.2H128.843V22.8ZM113.904 23.6236L102.804 57.2236L105.082 57.9764L116.182 24.3764L113.904 23.6236ZM174.382 45.1V43.9H173.182V45.1H174.382ZM200.882 45.1V46.3H202.082V45.1H200.882ZM200.882 32.1H202.082V30.9H200.882V32.1ZM174.382 32.1H173.182V33.3H174.382V32.1ZM174.382 17.2V16H173.182V17.2H174.382ZM203.382 17.2V18.4H204.582V17.2H203.382ZM203.382 4H204.582V2.8H203.382V4ZM160.582 4V2.8H159.382V4H160.582ZM160.582 74H159.382V75.2H160.582V74ZM203.882 74V75.2H205.082V74H203.882ZM203.882 60.8H205.082V59.6H203.882V60.8ZM174.382 60.8H173.182V62H174.382V60.8ZM174.382 46.3H200.882V43.9H174.382V46.3ZM202.082 45.1V32.1H199.682V45.1H202.082ZM200.882 30.9H174.382V33.3H200.882V30.9ZM175.582 32.1V17.2H173.182V32.1H175.582ZM174.382 18.4H203.382V16H174.382V18.4ZM204.582 17.2V4H202.182V17.2H204.582ZM203.382 2.8H160.582V5.2H203.382V2.8ZM159.382 4V74H161.782V4H159.382ZM160.582 75.2H203.882V72.8H160.582V75.2ZM205.082 74V60.8H202.682V74H205.082ZM203.882 59.6H174.382V62H203.882V59.6ZM175.582 60.8V45.1H173.182V60.8H175.582ZM240.809 48.4L239.834 47.7006L239.333 48.3988L239.833 49.0978L240.809 48.4ZM258.309 24L259.285 24.6994L260.647 22.8H258.309V24ZM243.509 24V22.8H242.893L242.534 23.3012L243.509 24ZM233.409 38.1L232.434 38.7988L233.409 40.1607L234.385 38.7988L233.409 38.1ZM223.309 24L224.285 23.3012L223.926 22.8H223.309V24ZM208.409 24V22.8H206.078L207.433 24.6975L208.409 24ZM225.909 48.5L226.884 49.1997L227.385 48.5016L226.886 47.8025L225.909 48.5ZM207.609 74L206.634 73.3003L205.271 75.2H207.609V74ZM222.509 74V75.2H223.126L223.485 74.6993L222.509 74ZM233.409 58.8L234.388 58.1049L233.414 56.7345L232.434 58.1007L233.409 58.8ZM244.209 74L243.231 74.695L243.59 75.2H244.209V74ZM259.109 74V75.2H261.442L260.086 73.3022L259.109 74ZM241.785 49.0994L259.285 24.6994L257.334 23.3006L239.834 47.7006L241.785 49.0994ZM258.309 22.8H243.509V25.2H258.309V22.8ZM242.534 23.3012L232.434 37.4012L234.385 38.7988L244.485 24.6988L242.534 23.3012ZM234.385 37.4012L224.285 23.3012L222.334 24.6988L232.434 38.7988L234.385 37.4012ZM223.309 22.8H208.409V25.2H223.309V22.8ZM207.433 24.6975L224.933 49.1975L226.886 47.8025L209.386 23.3025L207.433 24.6975ZM224.934 47.8003L206.634 73.3003L208.584 74.6997L226.884 49.1997L224.934 47.8003ZM207.609 75.2H222.509V72.8H207.609V75.2ZM223.485 74.6993L234.385 59.4993L232.434 58.1007L221.534 73.3007L223.485 74.6993ZM232.431 59.495L243.231 74.695L245.188 73.305L234.388 58.1049L232.431 59.495ZM244.209 75.2H259.109V72.8H244.209V75.2ZM260.086 73.3022L241.786 47.7022L239.833 49.0978L258.133 74.6978L260.086 73.3022ZM278.448 29.9H277.248V33.4055L279.397 30.6354L278.448 29.9ZM278.448 24H279.648V22.8H278.448V24ZM265.548 24V22.8H264.348V24H265.548ZM265.548 94H264.348V95.2H265.548V94ZM278.448 94V95.2H279.648V94H278.448ZM278.448 68.1L279.397 67.3646L277.248 64.5945V68.1H278.448ZM311.848 67.8L310.975 66.9775L310.966 66.9868L311.848 67.8ZM311.848 30.3L310.966 31.1133L310.975 31.1224L311.848 30.3ZM282.348 59.2L281.484 60.0324L281.492 60.0405L281.5 60.0485L282.348 59.2ZM282.348 38.9L283.197 39.7485L283.205 39.7405L283.213 39.7324L282.348 38.9ZM302.148 38.9L301.284 39.7324L301.3 39.7487L301.316 39.7644L302.148 38.9ZM294.648 21.4C287.339 21.4 281.563 23.926 277.5 29.1646L279.397 30.6354C282.934 26.074 287.958 23.8 294.648 23.8V21.4ZM279.648 29.9V24H277.248V29.9H279.648ZM278.448 22.8H265.548V25.2H278.448V22.8ZM264.348 24V94H266.748V24H264.348ZM265.548 95.2H278.448V92.8H265.548V95.2ZM279.648 94V68.1H277.248V94H279.648ZM277.5 68.8354C281.563 74.074 287.339 76.6 294.648 76.6V74.2C287.958 74.2 282.934 71.926 279.397 67.3646L277.5 68.8354ZM294.648 76.6C301.685 76.6 307.804 73.9589 312.731 68.6132L310.966 66.9868C306.492 71.8411 301.012 74.2 294.648 74.2V76.6ZM312.722 68.6224C317.746 63.2847 320.248 56.6843 320.248 49H317.848C317.848 56.1157 315.551 62.1153 310.975 66.9776L312.722 68.6224ZM320.248 49C320.248 41.311 317.743 34.812 312.722 29.4776L310.975 31.1224C315.554 35.988 317.848 41.889 317.848 49H320.248ZM312.731 29.4868C307.813 24.1505 301.697 21.4 294.648 21.4V23.8C300.999 23.8 306.484 26.2494 310.966 31.1132L312.731 29.4868ZM283.213 58.3676C280.849 55.9132 279.648 52.8214 279.648 49H277.248C277.248 53.3786 278.648 57.0868 281.484 60.0324L283.213 58.3676ZM279.648 49C279.648 45.1736 280.852 42.0938 283.197 39.7485L281.5 38.0515C278.645 40.9062 277.248 44.6264 277.248 49H279.648ZM283.213 39.7324C285.563 37.2921 288.538 36.1 292.248 36.1V33.7C287.958 33.7 284.334 35.1079 281.484 38.0676L283.213 39.7324ZM292.248 36.1C295.958 36.1 298.934 37.2921 301.284 39.7324L303.013 38.0676C300.163 35.1079 296.538 33.7 292.248 33.7V36.1ZM301.316 39.7644C303.747 42.1055 304.948 45.1758 304.948 49H307.348C307.348 44.6242 305.95 40.8945 302.981 38.0356L301.316 39.7644ZM304.948 49C304.948 52.8192 303.75 55.9017 301.3 58.3515L302.997 60.0485C305.947 57.0983 307.348 53.3808 307.348 49H304.948ZM301.3 58.3515C298.946 60.7055 295.961 61.9 292.248 61.9V64.3C296.536 64.3 300.151 62.8945 302.997 60.0485L301.3 58.3515ZM292.248 61.9C288.536 61.9 285.551 60.7055 283.197 58.3515L281.5 60.0485C284.346 62.8945 287.961 64.3 292.248 64.3V61.9ZM376.746 54.3V55.5H377.771L377.931 54.4872L376.746 54.3ZM370.046 30.2L369.164 31.0133L369.172 31.0224L370.046 30.2ZM332.946 30.2L333.803 31.04L333.811 31.0314L332.946 30.2ZM333.046 67.9L332.198 68.7485L333.046 67.9ZM374.746 64.7L375.734 65.3816L376.473 64.3108L375.346 63.6606L374.746 64.7ZM364.346 58.7L364.946 57.6606L364.029 57.1316L363.39 57.9754L364.346 58.7ZM339.046 54.3V53.1H337.479L337.888 54.6126L339.046 54.3ZM338.846 44.3L337.678 44.0262L337.332 45.5H338.846V44.3ZM364.346 44.3V45.5H365.84L365.518 44.0415L364.346 44.3ZM377.931 54.4872C378.235 52.5637 378.446 50.7923 378.446 49H376.046C376.046 50.6077 375.857 52.2363 375.561 54.1128L377.931 54.4872ZM378.446 49C378.446 41.2134 375.942 34.7136 370.92 29.3776L369.172 31.0224C373.75 35.8863 376.046 41.7866 376.046 49H378.446ZM370.929 29.3868C365.981 24.0179 359.55 21.4 351.946 21.4V23.8C358.942 23.8 364.711 26.182 369.164 31.0132L370.929 29.3868ZM351.946 21.4C343.963 21.4 337.235 24.0036 332.081 29.3686L333.811 31.0314C338.457 26.1964 344.529 23.8 351.946 23.8V21.4ZM332.089 29.3601C326.955 34.5989 324.346 41.2069 324.346 49H326.746C326.746 41.7931 329.137 35.8011 333.803 31.0399L332.089 29.3601ZM324.346 49C324.346 56.8919 326.955 63.5055 332.198 68.7485L333.895 67.0515C329.138 62.2945 326.746 56.3081 326.746 49H324.346ZM332.198 68.7485C337.46 74.0111 344.385 76.6 352.946 76.6V74.2C344.907 74.2 338.632 71.7889 333.895 67.0515L332.198 68.7485ZM352.946 76.6C362.891 76.6 370.583 72.8448 375.734 65.3816L373.758 64.0184C369.109 70.7552 362.201 74.2 352.946 74.2V76.6ZM375.346 63.6606L364.946 57.6606L363.746 59.7394L374.146 65.7394L375.346 63.6606ZM363.39 57.9754C361.159 60.9198 357.747 62.5 353.146 62.5V64.9C358.345 64.9 362.533 63.0802 365.303 59.4246L363.39 57.9754ZM353.146 62.5C349.447 62.5 346.603 61.7544 344.51 60.3632C342.44 58.9864 340.991 56.9016 340.205 53.9874L337.888 54.6126C338.801 57.9984 340.552 60.6136 343.182 62.3618C345.789 64.0956 349.145 64.9 353.146 64.9V62.5ZM339.046 55.5H376.746V53.1H339.046V55.5ZM340.014 44.5738C340.711 41.6011 342.13 39.3309 344.106 37.7984C346.085 36.264 348.714 35.4 351.946 35.4V33C348.279 33 345.107 33.986 342.636 35.9016C340.163 37.819 338.481 40.5989 337.678 44.0262L340.014 44.5738ZM351.946 35.4C354.672 35.4 357.129 36.1607 359.064 37.6507C360.992 39.1354 362.478 41.4027 363.174 44.5585L365.518 44.0415C364.714 40.3973 362.95 37.6146 360.528 35.7493C358.113 33.8892 355.12 33 351.946 33V35.4ZM364.346 43.1H338.846V45.5H364.346V43.1ZM399.152 24H400.352V22.8H399.152V24ZM386.252 24V22.8H385.052V24H386.252ZM386.252 74H385.052V75.2H386.252V74ZM399.152 74V75.2H400.352V74H399.152ZM414.352 37.4L414.199 38.5903L415.552 38.7637V37.4H414.352ZM414.352 23H415.552V21.8H414.352V23ZM399.152 32.6H397.952L400.275 33.0213L399.152 32.6ZM399.152 22.8H386.252V25.2H399.152V22.8ZM385.052 24V74H387.452V24H385.052ZM386.252 75.2H399.152V72.8H386.252V75.2ZM400.352 74V50.1H397.952V74H400.352ZM400.352 50.1C400.352 45.5655 401.751 42.6049 404.425 40.7935L403.079 38.8065C399.553 41.195 397.952 45.0345 397.952 50.1H400.352ZM404.425 40.7935C407.265 38.8691 410.568 38.1247 414.199 38.5903L414.504 36.2097C410.335 35.6753 406.438 36.5309 403.079 38.8065L404.425 40.7935ZM415.552 37.4V23H413.152V37.4H415.552ZM414.352 21.8C407.179 21.8 400.645 25.201 398.028 32.1786L400.275 33.0213C402.459 27.199 407.924 24.2 414.352 24.2V21.8ZM400.352 32.6V24H397.952V32.6H400.352ZM451.863 24H453.063V22.8H451.863V24ZM440.563 24H439.363V25.2H440.563V24ZM440.563 10H441.763V8.38356L440.216 8.85134L440.563 10ZM427.663 13.9L427.316 12.7513L426.463 13.0091V13.9H427.663ZM427.663 24V25.2H428.863V24H427.663ZM418.963 24V22.8H417.763V24H418.963ZM418.963 36.4H417.763V37.6H418.963V36.4ZM427.663 36.4H428.863V35.2H427.663V36.4ZM451.863 74L451.998 75.1924L453.063 75.072V74H451.863ZM451.863 62.3H453.063V61.0334L451.799 61.1017L451.863 62.3ZM440.563 36.4V35.2H439.363V36.4H440.563ZM451.863 36.4V37.6H453.063V36.4H451.863ZM451.863 22.8H440.563V25.2H451.863V22.8ZM441.763 24V10H439.363V24H441.763ZM440.216 8.85134L427.316 12.7513L428.011 15.0487L440.911 11.1486L440.216 8.85134ZM426.463 13.9V24H428.863V13.9H426.463ZM427.663 22.8H418.963V25.2H427.663V22.8ZM417.763 24V36.4H420.163V24H417.763ZM418.963 37.6H427.663V35.2H418.963V37.6ZM426.463 36.4V57.2H428.863V36.4H426.463ZM426.463 57.2C426.463 64.2009 428.123 69.3925 432.429 72.4644C436.65 75.4755 443.093 76.1986 451.998 75.1924L451.729 72.8076C442.933 73.8014 437.277 72.9745 433.823 70.5106C430.454 68.1075 428.863 63.8991 428.863 57.2H426.463ZM453.063 74V62.3H450.663V74H453.063ZM451.799 61.1017C449.948 61.2018 448.36 61.2677 447.008 61.2317C445.647 61.1954 444.607 61.0566 443.827 60.7896C443.074 60.532 442.607 60.1716 442.303 59.6908C441.985 59.1868 441.763 58.418 441.763 57.2H439.363C439.363 58.682 439.629 59.9507 440.273 60.9717C440.933 62.0159 441.903 62.668 443.05 63.0604C444.169 63.4434 445.492 63.5921 446.944 63.6308C448.404 63.6698 450.079 63.5982 451.928 63.4983L451.799 61.1017ZM441.763 57.2V36.4H439.363V57.2H441.763ZM440.563 37.6H451.863V35.2H440.563V37.6ZM453.063 36.4V24H450.663V36.4H453.063ZM473.859 74V75.2H475.059V74H473.859ZM473.859 24H475.059V22.8H473.859V24ZM460.959 24V22.8H459.759V24H460.959ZM460.959 74H459.759V75.2H460.959V74ZM467.359 19.2C472.412 19.2 476.559 15.0725 476.559 10.1H474.159C474.159 13.7275 471.106 16.8 467.359 16.8V19.2ZM476.559 10.1C476.559 5.14699 472.431 0.899996 467.359 0.899996V3.3C471.086 3.3 474.159 6.453 474.159 10.1H476.559ZM467.359 0.899996C462.376 0.899996 458.259 5.15684 458.259 10.1H460.659C460.659 6.44315 463.741 3.3 467.359 3.3V0.899996ZM458.259 10.1C458.259 15.0627 462.396 19.2 467.359 19.2V16.8C463.721 16.8 460.659 13.7373 460.659 10.1H458.259ZM475.059 74V24H472.659V74H475.059ZM473.859 22.8H460.959V25.2H473.859V22.8ZM459.759 24V74H462.159V24H459.759ZM460.959 75.2H473.859V72.8H460.959V75.2ZM510.975 39.2L509.889 39.711L510.432 40.8633L511.55 40.2535L510.975 39.2ZM521.975 33.2L522.55 34.2535L523.626 33.6664L523.016 32.603L521.975 33.2ZM489.375 26.9L490.112 27.8472L490.115 27.8445L489.375 26.9ZM500.675 53.9L500.377 55.0623L500.379 55.0628L500.675 53.9ZM493.075 57.2L494.208 56.8047L493.736 55.4514L492.487 56.1541L493.075 57.2ZM481.875 63.5L481.287 62.4541L480.316 63.0002L480.788 64.009L481.875 63.5ZM517.175 71.3L517.87 72.2782L517.875 72.2748L517.175 71.3ZM522.975 59.4L521.775 59.3888V59.4H522.975ZM506.275 43.7L505.979 44.8628L506.006 44.8698L506.033 44.8754L506.275 43.7ZM498.375 38.2C498.375 37.4042 498.754 36.7259 499.517 36.2017C500.307 35.6591 501.503 35.3 502.975 35.3V32.9C501.147 32.9 499.443 33.3409 498.158 34.2233C496.846 35.1241 495.975 36.4958 495.975 38.2H498.375ZM502.975 35.3C504.637 35.3 506.005 35.6798 507.119 36.3878C508.233 37.0959 509.169 38.1804 509.889 39.711L512.061 38.689C511.181 36.8196 509.967 35.3541 508.406 34.3622C506.845 33.3702 505.013 32.9 502.975 32.9V35.3ZM511.55 40.2535L522.55 34.2535L521.4 32.1465L510.4 38.1465L511.55 40.2535ZM523.016 32.603C518.885 25.3997 511.469 21.4 502.975 21.4V23.8C510.681 23.8 517.265 27.4003 520.934 33.797L523.016 32.603ZM502.975 21.4C497.355 21.4 492.581 22.8626 488.635 25.9555L490.115 27.8445C493.569 25.1374 497.795 23.8 502.975 23.8V21.4ZM488.638 25.9528C484.718 29.0016 482.775 33.2661 482.775 38.5H485.175C485.175 33.9339 486.832 30.3984 490.112 27.8472L488.638 25.9528ZM482.775 38.5C482.775 44.1401 485.333 47.8595 488.854 50.3652C492.303 52.8193 496.675 54.1119 500.377 55.0623L500.973 52.7377C497.275 51.788 493.297 50.5807 490.246 48.4097C487.267 46.2905 485.175 43.2599 485.175 38.5H482.775ZM500.379 55.0628C502.923 55.7114 505.074 56.3827 506.572 57.1834C508.115 58.0076 508.575 58.7493 508.575 59.4H510.975C510.975 57.3507 509.435 55.9924 507.703 55.0666C505.926 54.1173 503.527 53.3886 500.971 52.7372L500.379 55.0628ZM508.575 59.4C508.575 60.4683 508.187 61.1409 507.418 61.6174C506.55 62.155 505.094 62.5 502.875 62.5V64.9C505.256 64.9 507.25 64.545 508.682 63.6576C510.213 62.7091 510.975 61.2317 510.975 59.4H508.575ZM502.875 62.5C500.495 62.5 498.671 61.9875 497.292 61.0652C495.923 60.1485 494.889 58.7568 494.208 56.8047L491.942 57.5952C492.761 59.9432 494.077 61.8015 495.958 63.0598C497.829 64.3125 500.155 64.9 502.875 64.9V62.5ZM492.487 56.1541L481.287 62.4541L482.463 64.5459L493.663 58.2459L492.487 56.1541ZM480.788 64.009C482.734 68.1634 485.572 71.335 489.307 73.456C493.031 75.5704 497.573 76.6 502.875 76.6V74.2C497.877 74.2 493.769 73.2296 490.493 71.369C487.228 69.515 484.716 66.7366 482.962 62.991L480.788 64.009ZM502.875 76.6C508.774 76.6 513.83 75.149 517.87 72.2782L516.48 70.3218C512.92 72.851 508.376 74.2 502.875 74.2V76.6ZM517.875 72.2748C522.122 69.2257 524.175 64.8441 524.175 59.4H521.775C521.775 64.1559 520.028 67.7743 516.475 70.3252L517.875 72.2748ZM524.175 59.4112C524.229 53.6298 521.658 49.7324 518.109 47.1321C514.623 44.577 510.217 43.285 506.517 42.5246L506.033 44.8754C509.633 45.615 513.627 46.823 516.691 49.0679C519.692 51.2676 521.821 54.4702 521.775 59.3888L524.175 59.4112ZM506.571 42.5372C504.027 41.8886 501.876 41.2173 500.378 40.4166C498.835 39.5924 498.375 38.8507 498.375 38.2H495.975C495.975 40.2493 497.515 41.6076 499.247 42.5334C501.024 43.4827 503.423 44.2114 505.979 44.8628L506.571 42.5372ZM579.188 54.3V55.5H580.213L580.373 54.4872L579.188 54.3ZM572.487 30.2L571.605 31.0133L571.614 31.0224L572.487 30.2ZM535.388 30.2L536.245 31.04L536.253 31.0314L535.388 30.2ZM535.487 67.9L534.639 68.7485L535.487 67.9ZM577.188 64.7L578.175 65.3816L578.914 64.3108L577.787 63.6606L577.188 64.7ZM566.787 58.7L567.387 57.6606L566.47 57.1316L565.831 57.9754L566.787 58.7ZM541.487 54.3V53.1H539.921L540.329 54.6126L541.487 54.3ZM541.287 44.3L540.119 44.0262L539.774 45.5H541.287V44.3ZM566.787 44.3V45.5H568.281L567.959 44.0415L566.787 44.3ZM580.373 54.4872C580.677 52.5637 580.888 50.7923 580.888 49H578.487C578.487 50.6077 578.298 52.2363 578.002 54.1128L580.373 54.4872ZM580.888 49C580.888 41.2134 578.384 34.7136 573.361 29.3776L571.614 31.0224C576.191 35.8863 578.487 41.7866 578.487 49H580.888ZM573.37 29.3868C568.422 24.0179 561.991 21.4 554.388 21.4V23.8C561.384 23.8 567.153 26.182 571.605 31.0132L573.37 29.3868ZM554.388 21.4C546.404 21.4 539.677 24.0036 534.522 29.3686L536.253 31.0314C540.898 26.1964 546.971 23.8 554.388 23.8V21.4ZM534.53 29.3601C529.396 34.5989 526.787 41.2069 526.787 49H529.188C529.188 41.7931 531.579 35.8011 536.245 31.0399L534.53 29.3601ZM526.787 49C526.787 56.8919 529.396 63.5055 534.639 68.7485L536.336 67.0515C531.579 62.2945 529.188 56.3081 529.188 49H526.787ZM534.639 68.7485C539.902 74.0111 546.827 76.6 555.388 76.6V74.2C547.348 74.2 541.073 71.7889 536.336 67.0515L534.639 68.7485ZM555.388 76.6C565.333 76.6 573.024 72.8448 578.175 65.3816L576.2 64.0184C571.55 70.7552 564.642 74.2 555.388 74.2V76.6ZM577.787 63.6606L567.387 57.6606L566.188 59.7394L576.588 65.7394L577.787 63.6606ZM565.831 57.9754C563.6 60.9198 560.188 62.5 555.588 62.5V64.9C560.787 64.9 564.975 63.0802 567.744 59.4246L565.831 57.9754ZM555.588 62.5C551.888 62.5 549.044 61.7544 546.952 60.3632C544.881 58.9864 543.432 56.9016 542.646 53.9874L540.329 54.6126C541.243 57.9984 542.994 60.6136 545.623 62.3618C548.231 64.0956 551.587 64.9 555.588 64.9V62.5ZM541.487 55.5H579.188V53.1H541.487V55.5ZM542.456 44.5738C543.153 41.6011 544.571 39.3309 546.548 37.7984C548.527 36.264 551.155 35.4 554.388 35.4V33C550.72 33 547.548 33.986 545.077 35.9016C542.604 37.819 540.922 40.5989 540.119 44.0262L542.456 44.5738ZM554.388 35.4C557.114 35.4 559.571 36.1607 561.505 37.6507C563.433 39.1354 564.92 41.4027 565.616 44.5585L567.959 44.0415C567.155 40.3973 565.392 37.6146 562.97 35.7493C560.554 33.8892 557.561 33 554.388 33V35.4ZM566.787 43.1H541.287V45.5H566.787V43.1Z" fill="white"/>
</svg>
