<svg width="456" height="76" viewBox="0 0 456 76" fill="none" xmlns="http://www.w3.org/2000/svg">
<path fill-rule="evenodd" clip-rule="evenodd" d="M0 1.4H27.3C34.3034 1.4 40.3076 3.81571 45.1392 8.5422C49.9784 13.2763 52.4 19.1893 52.4 26.1C52.4 33.0107 49.9784 38.9237 45.1392 43.6578C40.3076 48.3843 34.3034 50.8 27.3 50.8H16.2V73.8H0V1.4ZM15 72.6H1.2V2.6H27.3C34 2.6 39.7 4.9 44.3 9.4C48.9 13.9 51.2 19.5 51.2 26.1C51.2 32.7 48.9 38.3 44.3 42.8C39.7 47.3 34 49.6 27.3 49.6H15V72.6ZM16.2 16.7V35.5H27.3C32.4846 35.5 36.3 31.4912 36.3 26.1C36.3 20.6164 32.4919 16.7 27.3 16.7H16.2ZM115.58 73.8H97.8933L83.7933 49.5H75.1844V73.8H58.9844V1.4H88.1844C95.0018 1.4 100.807 3.82582 105.533 8.55147C110.257 13.2751 112.684 19.0798 112.684 25.8C112.684 34.5631 107.511 42.6088 99.6743 46.7083L115.58 73.8ZM97.9844 46.2C98.3505 46.0327 98.7112 45.8567 99.066 45.6722C106.562 41.7753 111.484 34.1067 111.484 25.8C111.484 19.4 109.184 13.9 104.684 9.4C100.184 4.9 94.6844 2.6 88.1844 2.6H60.1844V72.6H73.9844V48.3H84.4844L98.5844 72.6H113.484L97.9844 46.2ZM96.4844 25.8C96.4844 20.6744 92.6366 16.7 88.1844 16.7H75.1844V35H88.1844C92.6222 35 96.4844 30.9412 96.4844 25.8ZM128.129 63.5C121.129 56.4 117.629 47.8 117.629 37.6C117.629 27.4 121.129 18.8 128.129 11.8C135.229 4.7 143.829 1.2 153.929 1.2C164.029 1.2 172.629 4.7 179.729 11.8C186.829 18.8 190.329 27.4 190.329 37.6C190.329 47.8 186.829 56.4 179.729 63.5C172.629 70.5 164.029 74 153.929 74C143.829 74 135.229 70.5 128.129 63.5ZM180.575 10.9488C173.246 3.62105 164.339 0 153.929 0C143.517 0 134.61 3.62192 127.28 10.9515C120.048 18.184 116.429 27.0925 116.429 37.6C116.429 48.109 120.049 57.0135 127.274 64.3425L127.28 64.3486L127.286 64.3545C134.614 71.5791 143.518 75.2 153.929 75.2C164.34 75.2 173.244 71.5791 180.571 64.3546L180.577 64.3485C187.908 57.0177 191.529 48.11 191.529 37.6C191.529 27.0931 187.91 18.1825 180.575 10.9488ZM132.529 37.6C132.529 44.0102 134.622 49.1959 138.677 53.2515C142.733 57.307 147.819 59.3 153.929 59.3C160.039 59.3 165.125 57.307 169.18 53.2515C173.236 49.1959 175.329 44.0102 175.329 37.6C175.329 31.1898 173.236 26.0041 169.18 21.9485C165.115 17.8835 160.025 15.8 153.929 15.8C147.833 15.8 142.742 17.8835 138.677 21.9485C134.622 26.0041 132.529 31.1898 132.529 37.6ZM198.828 1.4H227.828C237.745 1.4 246.06 4.92662 252.692 11.8672C259.425 18.8083 262.728 27.4149 262.728 37.6C262.728 47.7849 259.425 56.3914 252.693 63.3324C246.061 70.2733 237.746 73.8 227.828 73.8H198.828V1.4ZM251.828 12.7C245.428 6 237.428 2.6 227.828 2.6H200.028V72.6H227.828C237.428 72.6 245.428 69.2 251.828 62.5C258.328 55.8 261.528 47.5 261.528 37.6C261.528 27.7 258.328 19.4 251.828 12.7ZM242.628 21.9C238.828 17.8 233.928 15.8 227.828 15.8H213.828V59.4H227.828C233.928 59.4 238.828 57.4 242.628 53.4C246.428 49.3 248.328 44.1 248.328 37.6C248.328 31.1 246.428 25.9 242.628 21.9ZM241.752 52.5795C245.314 48.7344 247.128 43.842 247.128 37.6C247.128 31.3519 245.311 26.4661 241.758 22.7265L241.753 22.7211L241.748 22.7157C238.2 18.8877 233.633 17 227.828 17H215.028V58.2H227.828C233.631 58.2 238.203 56.3127 241.752 52.5795ZM324.929 1.4V49.7C324.929 57.402 322.311 63.6462 317.022 68.3009C311.765 72.9272 305.066 75.2 296.929 75.2C288.89 75.2 282.192 72.9259 276.936 68.3009C271.647 63.6462 269.029 57.402 269.029 49.7V1.4H285.129V48.6C285.129 52.0298 286.088 54.6517 287.925 56.424C289.767 58.2021 292.675 59.3 296.929 59.3C301.183 59.3 304.09 58.2021 305.933 56.424C307.77 54.6517 308.729 52.0298 308.729 48.6V1.4H324.929ZM270.229 2.6H283.929V48.6C283.929 55.9 288.029 60.5 296.929 60.5C305.829 60.5 309.929 55.9 309.929 48.6V2.6H323.729V49.7C323.729 57.1 321.229 63 316.229 67.4C311.229 71.8 304.829 74 296.929 74C289.129 74 282.729 71.8 277.729 67.4C272.729 63 270.229 57.1 270.229 49.7V2.6ZM401.112 57.0702L400.493 58.1129C394.265 68.5959 382.562 75.2 369.361 75.2C358.564 75.2 349.548 71.588 342.406 64.3424C335.272 57.1044 331.761 48.1958 331.761 37.6C331.761 27.0106 335.268 17.9974 342.41 10.8538C349.552 3.61079 358.566 0 369.361 0C382.46 0 394.264 6.60254 400.493 17.0871L401.112 18.1298L387.106 26.2512L386.512 25.1828C383.249 19.3094 376.98 15.8 369.361 15.8C362.833 15.8 357.663 17.8036 353.725 21.833C349.866 25.883 347.861 31.0729 347.861 37.6C347.861 44.0244 349.864 49.2152 353.725 53.2669C357.663 57.2963 362.833 59.3 369.361 59.3C376.993 59.3 383.448 55.6815 386.505 50.029L387.094 48.9419L401.112 57.0702ZM352.861 54.1C357.061 58.4 362.561 60.5 369.361 60.5C376.975 60.5 383.592 57.0582 387.058 51.4675C387.234 51.1838 387.402 50.8946 387.561 50.6L399.461 57.5C399.256 57.8445 399.045 58.1847 398.829 58.5205C392.688 68.0292 381.724 74 369.361 74C358.861 74 350.161 70.5 343.261 63.5C336.361 56.5 332.961 47.9 332.961 37.6C332.961 27.3 336.361 18.6 343.261 11.7C350.161 4.7 358.861 1.2 369.361 1.2C381.628 1.2 392.682 7.1709 398.828 16.6797C399.045 17.0154 399.256 17.3555 399.461 17.7L387.561 24.6C387.447 24.3948 387.33 24.1923 387.209 23.9926C383.623 18.0629 377.1 14.6 369.361 14.6C362.561 14.6 357.061 16.7 352.861 21C348.761 25.3 346.661 30.8 346.661 37.6C346.661 44.3 348.761 49.8 352.861 54.1ZM401.245 1.4H455.145V17H436.245V73.8H420.045V17H401.245V1.4ZM402.445 15.8V2.6H453.945V15.8H435.045V72.6H421.245V15.8H402.445ZM15 36.7H27.3C33.2 36.7 37.5 32.1 37.5 26.1C37.5 20 33.2 15.5 27.3 15.5H15V36.7ZM97.6844 25.8C97.6844 20.1 93.3844 15.5 88.1844 15.5H73.9844V36.2H88.1844C93.3844 36.2 97.6844 31.5 97.6844 25.8ZM131.329 37.6C131.329 44.3 133.529 49.8 137.829 54.1C142.129 58.4 147.529 60.5 153.929 60.5C160.329 60.5 165.729 58.4 170.029 54.1C174.329 49.8 176.529 44.3 176.529 37.6C176.529 30.9 174.329 25.4 170.029 21.1C165.729 16.8 160.329 14.6 153.929 14.6C147.529 14.6 142.129 16.8 137.829 21.1C133.529 25.4 131.329 30.9 131.329 37.6Z" fill="white"/>
</svg>
