<svg width="182" height="24" viewBox="0 0 182 24" fill="none" xmlns="http://www.w3.org/2000/svg">
<g opacity="0.8">
<g opacity="0.7">
<path d="M95.8021 0.714835C94.8309 0.714835 93.9741 1.37163 93.6877 2.28601L89.4877 16.3714L83.9454 0.714835H81.6022C80.9099 0.71289 80.2917 1.14802 80.0599 1.80042L74.8871 16.4858L70.516 1.88602C70.3168 1.20043 69.66 0.714835 68.9752 0.714835H65.6873L72.7448 23.2569H74.7735C75.6904 23.2575 76.5109 22.688 76.8311 21.829L82.1742 7.71474L88.0598 23.2569H90.5165C91.1741 23.2569 91.7453 22.8289 91.9453 22.2002L98.6868 0.686035H95.8013V0.714835H95.8021ZM149.545 0.714835H146.601C145.83 0.714835 145.23 1.34363 145.23 2.08602V23.2569H157.773C159.001 23.2569 159.973 22.257 159.973 21.057V19.2002H149.516V0.714835H149.545ZM137.802 16.057C140.83 14.6571 142.487 11.9715 142.487 8.48593C142.487 4.74358 139.916 0.714835 134.259 0.714835H124.774C124.002 0.714835 123.402 1.34363 123.402 2.08602V23.2569H125.487C126.716 23.2569 127.687 22.257 127.687 21.057V16.5714H132.602L138.145 23.2569H143.287L137.374 16.057H137.802ZM134.459 12.5147H127.687V4.80038H134.43C135.887 4.80038 136.774 5.51477 137.259 6.11476C137.83 6.80035 138.145 7.77154 138.145 8.65713C138.173 10.2291 136.859 12.5147 134.459 12.5147ZM169.63 0.714835H163.116C162.344 0.714835 161.744 1.34363 161.744 2.08602V23.2569H169.63C178.173 23.2569 182.001 17.5714 182.001 11.9435C182.001 6.37156 178.174 0.714835 169.63 0.714835ZM170.115 19.2002H166.03V4.77158H170.115C172.487 4.77158 174.459 5.57157 175.83 7.11475C177.001 8.40033 177.659 10.1715 177.659 11.9715C177.687 15.457 174.773 19.2002 170.115 19.2002Z" fill="#EAEAEA"/>
<path d="M109.86 18.1713C113.268 18.1713 116.031 15.4084 116.031 12.0002C116.031 8.59201 113.268 5.8291 109.86 5.8291C106.451 5.8291 103.688 8.59201 103.688 12.0002C103.688 15.4084 106.451 18.1713 109.86 18.1713Z" fill="url(#paint0_linear)"/>
<path d="M109.86 18.1713C113.268 18.1713 116.031 15.4084 116.031 12.0002C116.031 8.59201 113.268 5.8291 109.86 5.8291C106.451 5.8291 103.688 8.59201 103.688 12.0002C103.688 15.4084 106.451 18.1713 109.86 18.1713Z" fill="url(#paint1_radial)"/>
<path d="M109.86 18.1713C113.268 18.1713 116.031 15.4084 116.031 12.0002C116.031 8.59201 113.268 5.8291 109.86 5.8291C106.451 5.8291 103.688 8.59201 103.688 12.0002C103.688 15.4084 106.451 18.1713 109.86 18.1713Z" fill="#FEFEFE"/>
<path d="M113.945 0.657015L113.002 0.400218C107.916 -0.970963 102.431 4.60016 101.975 11.1145C102.172 9.34736 102.957 7.69756 104.203 6.42894C105.687 4.92158 107.716 4.07676 109.832 4.08577C112.088 4.08577 114.088 5.02896 115.546 6.51454C116.964 7.98809 117.752 9.95529 117.746 12.0001C117.746 12.2857 117.717 12.6001 117.688 12.8857C117.231 19.4 111.746 24.9711 106.66 23.5999L105.717 23.3431C106.975 23.7711 108.375 23.9999 109.832 23.9999C116.688 23.9999 121.832 18.8288 121.832 12.0001C121.86 6.62894 118.66 2.28579 113.946 0.657015H113.945Z" fill="url(#paint2_radial)"/>
<path d="M109.859 19.9141C106.945 19.9141 104.402 18.371 103.031 15.9998C102.32 14.7867 101.945 13.4059 101.945 11.9998C101.945 11.7142 101.974 11.3998 102.002 11.1143C102.46 4.59994 107.945 -0.971187 113.031 0.399995L113.974 0.656791C112.716 0.228797 111.316 0 109.859 0C103.002 0 97.8596 5.17113 97.8596 11.9998C97.8596 17.3998 101.06 21.7429 105.745 23.3429L106.688 23.5997C111.774 24.9709 117.259 19.3997 117.716 12.8854C117.272 16.8888 113.887 19.917 109.859 19.9141Z" fill="url(#paint3_radial)"/>
<path d="M33.3459 0.714355H23.3461C22.4816 0.722171 21.7827 1.42105 21.7749 2.28553V23.2853H25.6317C26.7808 23.2787 27.7107 22.3488 27.7172 21.1997V17.7141H32.5172L36.4027 23.2565H42.8602L38.2027 16.6565L38.7459 16.3142C40.917 14.9422 42.4026 12.0854 42.4026 9.17104C42.4026 3.37112 37.6883 0.714355 33.3459 0.714355ZM33.4027 12.2566H27.6884V6.11508H33.4027C35.4027 6.11508 36.4603 7.65746 36.4603 9.17184C36.4603 10.3718 35.6315 12.2574 33.4027 12.2574V12.2566Z" fill="#FEFEFE"/>
<path d="M7.26093 23.2854H11.1177C12.2668 23.2789 13.1967 22.349 13.2033 21.1999V6.20006H18.6608C19.632 6.20006 20.432 5.40007 20.432 4.42808V0.715333H1.17541C0.54662 0.714534 0.0322266 1.22733 0.0322266 1.85692V6.17126H7.26093V23.2854Z" fill="#FEFEFE"/>
<path d="M50.3748 23.2853H54.2315C55.3806 23.2787 56.3105 22.3488 56.3171 21.1997V6.17108H61.7746C62.7458 6.17108 63.5458 5.37109 63.5458 4.39991V0.714355H44.2876C43.6597 0.714355 43.1453 1.22795 43.1453 1.85674V6.17108H50.374V23.2853H50.3748Z" fill="#FEFEFE"/>
<path d="M33.3459 0.714355H23.3461C22.4816 0.722171 21.7827 1.42105 21.7749 2.28553V23.2853H25.6317C26.7808 23.2787 27.7107 22.3488 27.7172 21.1997V17.7141H32.5172L36.4027 23.2565H42.8602L38.2027 16.6565L38.7459 16.3142C40.917 14.9422 42.4026 12.0854 42.4026 9.17104C42.4026 3.37112 37.6883 0.714355 33.3459 0.714355ZM33.4028 12.2566H27.6884V6.11508H33.4028C35.4027 6.11508 36.4603 7.65746 36.4603 9.17184C36.4603 10.3718 35.6315 12.2574 33.4028 12.2574V12.2566Z" fill="#FEFEFE"/>
<path d="M7.26093 23.2849H11.1177C12.2668 23.2784 13.1967 22.3485 13.2033 21.1994V6.19957H18.6608C19.632 6.19957 20.432 5.39958 20.432 4.4276V0.714845H1.17541C0.54662 0.714046 0.0322266 1.22684 0.0322266 1.85643V6.17077H7.26093V23.2849Z" fill="#FEFEFE"/>
<path d="M50.3748 23.2853H54.2315C55.3806 23.2787 56.3105 22.3488 56.3171 21.1997V6.17108H61.7746C62.7458 6.17108 63.5458 5.37109 63.5458 4.39991V0.714355H44.2876C43.6597 0.714355 43.1453 1.22795 43.1453 1.85674V6.17108H50.374V23.2853H50.3748Z" fill="#FEFEFE"/>
<path d="M33.3459 0.714355H23.3461C22.4816 0.722171 21.7827 1.42105 21.7749 2.28553V23.2853H25.6317C26.7808 23.2787 27.7107 22.3488 27.7172 21.1997V17.7141H32.5172L36.4027 23.2565H42.8602L38.2027 16.6565L38.7459 16.3142C40.917 14.9422 42.4026 12.0854 42.4026 9.17104C42.4026 3.37112 37.6883 0.714355 33.3459 0.714355ZM33.4028 12.2566H27.6884V6.11508H33.4028C35.4027 6.11508 36.4603 7.65746 36.4603 9.17184C36.4603 10.3718 35.6315 12.2574 33.4028 12.2574V12.2566Z" fill="#FEFEFE"/>
<path d="M7.26093 23.2849H11.1177C12.2668 23.2784 13.1967 22.3485 13.2033 21.1994V6.19957H18.6608C19.632 6.19957 20.432 5.39958 20.432 4.4276V0.714845H1.17541C0.54662 0.714046 0.0322266 1.22684 0.0322266 1.85643V6.17077H7.26093V23.2849Z" fill="#FEFEFE"/>
<path d="M50.3748 23.2853H54.2315C55.3806 23.2787 56.3105 22.3488 56.3171 21.1997V6.17108H61.7746C62.7458 6.17108 63.5458 5.37109 63.5458 4.39991V0.714355H44.2876C43.6597 0.714355 43.1453 1.22795 43.1453 1.85674V6.17108H50.374V23.2853H50.3748Z" fill="#FEFEFE"/>
</g>
</g>
<defs>
<linearGradient id="paint0_linear" x1="103.678" y1="12.005" x2="116.028" y2="12.005" gradientUnits="userSpaceOnUse">
<stop stop-color="#43C4DC"/>
<stop offset="0.06591" stop-color="#3EBCD8"/>
<stop offset="0.2703" stop-color="#29ADD0"/>
<stop offset="0.405" stop-color="#20A8CE"/>
<stop offset="0.5308" stop-color="#24A4CD"/>
<stop offset="0.7141" stop-color="#2C9ACA"/>
<stop offset="0.9318" stop-color="#3789C5"/>
<stop offset="1" stop-color="#3983C4"/>
</linearGradient>
<radialGradient id="paint1_radial" cx="0" cy="0" r="1" gradientUnits="userSpaceOnUse" gradientTransform="translate(112.707 9.71913) scale(10.0776)">
<stop stop-color="#0D91AE" stop-opacity="0"/>
<stop offset="0.8139" stop-color="#0D91AE" stop-opacity="0.867"/>
<stop offset="0.9392" stop-color="#0D91AE"/>
</radialGradient>
<radialGradient id="paint2_radial" cx="0" cy="0" r="1" gradientUnits="userSpaceOnUse" gradientTransform="translate(111.944 10.7974) scale(12.9709 12.9708)">
<stop stop-color="white"/>
<stop offset="0.1718" stop-color="#F7F7F6"/>
<stop offset="0.3477" stop-color="#E8E7E6"/>
<stop offset="0.5254" stop-color="#D2D0D0"/>
<stop offset="0.7046" stop-color="#B7B5B5"/>
<stop offset="0.883" stop-color="#979696"/>
<stop offset="1" stop-color="#828282"/>
</radialGradient>
<radialGradient id="paint3_radial" cx="0" cy="0" r="1" gradientUnits="userSpaceOnUse" gradientTransform="translate(103.457 4.12651) scale(19.8281)">
<stop stop-color="white"/>
<stop offset="0.1718" stop-color="#F7F7F6"/>
<stop offset="0.3477" stop-color="#E8E7E6"/>
<stop offset="0.5254" stop-color="#D2D0D0"/>
<stop offset="0.7046" stop-color="#B7B5B5"/>
<stop offset="0.883" stop-color="#979696"/>
<stop offset="1" stop-color="#828282"/>
</radialGradient>
</defs>
</svg>
