<svg width="78" height="28" viewBox="0 0 78 28" fill="none" xmlns="http://www.w3.org/2000/svg">
<path fill-rule="evenodd" clip-rule="evenodd" d="M41.7274 14.2968H36.6844H34.6174V6.68076H41.7274C44.234 6.68076 45.5454 8.5966 45.5454 10.4884C45.5454 11.961 44.5087 14.2968 41.7274 14.2968ZM41.6438 0H29.198C28.1214 0 27.2488 0.870288 27.2488 1.94391V28H32.0509C33.4914 28 34.6592 26.8357 34.6592 25.3988V21.1035H40.6271L45.4678 28H53.4988L47.7002 19.8169L48.3746 19.3962C51.0895 17.7009 52.9132 14.138 52.9132 10.5305C52.9132 3.29506 47.0716 0 41.6438 0Z" fill="#FEFEFE"/>
<mask id="mask0" mask-type="alpha" maskUnits="userSpaceOnUse" x="0" y="0" width="26" height="28">
<path d="M0.998779 0.0664062H25.1802V27.9928H0.998779V0.0664062Z" fill="white"/>
</mask>
<g mask="url(#mask0)">
<path fill-rule="evenodd" clip-rule="evenodd" d="M9.56268 27.9928H14.1331C15.5047 27.9928 16.6164 26.8316 16.6164 25.3992V8.56521V6.81481H23.0683C24.2344 6.81481 25.1803 5.82641 25.1803 4.60801V0.0664062H2.35508C1.60592 0.0664062 0.998779 0.701206 0.998779 1.48401V6.81481H9.56268V27.9928Z" fill="#FEFEFE"/>
</g>
<path fill-rule="evenodd" clip-rule="evenodd" d="M62.1755 28H66.8061C68.1958 28 69.3221 26.8357 69.3221 25.3996V6.76619H75.859C77.0404 6.76619 77.9988 5.77518 77.9988 4.55357V0H54.8729C54.1143 0 53.4988 0.636473 53.4988 1.42134V6.76619H62.1755V28Z" fill="#FEFEFE"/>
</svg>
