<svg width="180" height="40" viewBox="0 0 180 40" fill="none" xmlns="http://www.w3.org/2000/svg">
<path fill-rule="evenodd" clip-rule="evenodd" d="M90.2998 17.8453C89.8196 18.2619 89.2015 18.4645 88.4101 18.4645H84.9585V14.0661H88.4101C89.2012 14.0661 89.8191 14.2687 90.2998 14.685C90.7662 15.0897 90.9926 15.6067 90.9926 16.2653C90.9926 16.9242 90.7662 17.4409 90.2998 17.8453ZM94.501 19.7856C95.3031 18.8069 95.7096 17.6225 95.7096 16.2653C95.7096 14.4957 95.0784 13.0085 93.8331 11.8456C92.5361 10.6348 90.7996 10.0205 88.6713 10.0205H80.2416V29.9797H84.9585V22.294H87.3035L91.3317 29.9797H96.7902L92.0951 21.5116C93.0608 21.1249 93.8686 20.5459 94.501 19.7856Z" fill="#FDFDFD"/>
<path fill-rule="evenodd" clip-rule="evenodd" d="M73.0367 22.8961C73.0367 23.9077 72.749 24.6763 72.1537 25.2488C71.5778 25.8197 70.8038 26.0968 69.7874 26.0968C68.7711 26.0968 67.997 25.8197 67.422 25.2488C66.8474 24.6805 66.568 23.9103 66.568 22.8961V10.0205H61.8506V23.0317C61.8506 25.1295 62.6215 26.8649 64.1437 28.1917C65.6503 29.4858 67.5493 30.1421 69.7874 30.1421C72.0263 30.1421 73.9251 29.4856 75.4333 28.1899C76.9536 26.8646 77.7245 25.129 77.7245 23.0317V10.0205H73.0367V22.8961Z" fill="#FDFDFD"/>
<path fill-rule="evenodd" clip-rule="evenodd" d="M44.4023 14.0658H49.7919V29.9797H54.5093V14.0658H59.8989V10.0205H44.4023V14.0658Z" fill="#FDFDFD"/>
<path fill-rule="evenodd" clip-rule="evenodd" d="M115.686 10.0205H109.861L103.089 17.8315V10.0205H98.3715V29.9797H103.089V23.9754L105.357 21.4437L110.519 29.9797H116.033L108.506 18.0606L115.686 10.0205Z" fill="#FDFDFD"/>
<path fill-rule="evenodd" clip-rule="evenodd" d="M170.645 25.9344V10.0205H165.928V29.9797H179.529V25.9344H170.645Z" fill="#FDFDFD"/>
<path fill-rule="evenodd" clip-rule="evenodd" d="M155.689 10.0205H150.972V29.9797H164.157V25.9344H155.689V10.0205Z" fill="#FDFDFD"/>
<path fill-rule="evenodd" clip-rule="evenodd" d="M124.186 13.8396C125.877 13.8396 126.917 14.6585 127.364 16.3435L127.432 16.6001H132.235L132.163 16.1954C131.799 14.1311 130.879 12.5231 129.431 11.4181C128.009 10.3182 126.234 9.76025 124.156 9.76025C123.329 9.76025 122.537 9.85727 121.807 10.0469C118.689 10.7849 116.634 12.8095 115.524 16.2395C115.124 17.5147 115.039 18.9414 115.039 19.9137C115.039 21.0465 115.183 22.2646 115.436 23.2625C115.892 24.9377 116.723 26.4158 117.824 27.518C117.97 27.6892 118.131 27.8565 118.301 28.0152C119.882 29.492 121.852 30.2403 124.156 30.2403C126.216 30.2403 127.97 29.6917 129.369 28.6126C130.859 27.4879 131.799 25.8702 132.163 23.8052L132.235 23.4005H127.432L127.364 23.6573C126.917 25.3424 125.877 26.1616 124.186 26.1616C123.086 26.1616 122.27 26.0044 121.376 25.2194C120.927 24.759 120.581 24.2633 120.319 23.6993C120.032 23.1066 119.727 21.7857 119.727 19.8571C119.727 17.4665 120.256 15.8533 121.393 14.7799C122.073 14.1381 122.96 13.8396 124.186 13.8396Z" fill="#FDFDFD"/>
<path fill-rule="evenodd" clip-rule="evenodd" d="M134.151 29.9797H148.431V25.9344H138.868V21.942H147.011V17.8964H138.868V14.0658H148.431V10.0205H134.151V29.9797Z" fill="#FDFDFD"/>
<path fill-rule="evenodd" clip-rule="evenodd" d="M36.3252 9.35373C34.8601 7.04222 33.0845 5.14965 31.0096 3.67885C28.9344 2.20806 26.5599 1.15879 23.8969 0.534414C19.526 -0.490473 15.2755 -0.0277045 11.1772 1.80625C8.91267 2.81972 6.90829 4.21737 5.18381 5.99451C3.02898 8.21471 1.47284 10.7296 0.523959 13.5373C0.515398 13.5633 0.507876 13.5882 0.499575 13.6141C0.466631 13.7129 0.4368 13.8133 0.405413 13.9129C-0.567334 17.1598 0.34186 18.9531 1.77193 17.4511C1.82796 17.386 1.88606 17.3233 1.94287 17.2589C1.9644 17.2327 1.98567 17.2091 2.00772 17.1816C3.68033 15.0784 6.34151 13.3257 6.34151 13.3257L6.34306 13.327C7.0201 12.8548 7.72436 12.4133 8.45613 12.003C9.29269 11.5132 10.1674 11.0632 10.9829 10.7602C10.9829 10.7602 11.7414 10.4136 11.9435 9.35892C11.9471 9.3392 11.951 9.31975 11.9549 9.30029C11.957 9.28966 11.9593 9.28006 11.9611 9.26943C12.0971 8.39136 13.0379 5.97765 15.7001 5.8189C16.5343 5.7045 17.361 5.85288 18.0913 6.19995L18.0915 6.20021C19.375 6.81058 20.3597 8.03183 20.5592 9.50496C20.7179 10.6759 20.4386 11.7796 19.8401 12.6528C19.8082 12.7023 19.7714 12.7529 19.7309 12.8037C19.7192 12.8193 19.7078 12.8346 19.6959 12.8502C19.196 13.4963 18.5112 13.9967 17.6952 14.2782C17.2062 14.46 16.7092 14.5513 16.2327 14.5643C16.2316 14.5645 16.2306 14.5648 16.2306 14.5648C15.9315 14.6037 15.6002 14.5648 15.268 14.4826C14.8926 14.4066 14.5486 14.2808 14.2534 14.1145C13.7393 13.8738 13.3219 13.6017 13.1686 13.4605C13.047 13.3482 12.9162 13.2873 12.7897 13.2569C12.5079 13.2107 12.2781 13.2639 12.1111 13.3365C12.1087 13.3378 12.1061 13.3389 12.1061 13.3389C12.0128 13.3799 11.9404 13.4263 11.8885 13.4644C11.2514 13.9957 10.6452 14.5529 10.0704 15.1363C8.56093 16.723 7.2935 18.5245 6.69896 19.4145C6.38431 19.9188 6.0847 20.4353 5.80247 20.9665C5.54126 21.4583 5.29872 21.9559 5.07304 22.4586C4.72026 23.2536 4.38693 24.1094 4.08836 25.029C4.07488 25.0707 4.06087 25.1125 4.04764 25.1548C4.02922 25.2129 4.01106 25.2712 3.99342 25.3291C3.97604 25.3864 3.95944 25.444 3.94232 25.5013C2.11122 31.7734 5.40767 35.3951 8.17053 31.6115C8.32124 31.3718 8.47558 31.1345 8.6333 30.8989C8.6346 30.8966 8.63589 30.8945 8.63745 30.8919C11.5326 25.8808 17.4728 22.2646 17.4728 22.2646L17.4757 22.2638C17.8391 22.0324 18.2064 21.8101 18.5779 21.5958L18.5794 21.5935C18.5794 21.5935 18.6051 21.5792 18.649 21.5551C19.6666 20.9717 20.7135 20.4498 21.7913 19.9927C22.7493 19.5665 23.7674 19.1678 24.6118 18.9627C24.6118 18.9627 25.6011 18.7053 25.867 17.4882V17.4877L25.8673 17.4869C26.0579 16.6138 26.6893 15.3368 28.1204 14.6501C28.4566 14.4782 28.8081 14.3492 29.1635 14.2704C29.5479 14.1853 29.931 14.1544 30.3053 14.1713H30.3079C30.5512 14.1674 30.7564 14.1946 30.931 14.246C32.7458 14.5962 34.2329 16.0851 34.4487 18.0478C34.7102 20.428 33.0568 22.5763 30.6911 22.8734C29.5116 23.0212 28.4434 22.7636 27.5324 22.0736C26.5103 21.6472 25.7238 21.9208 25.4413 22.0534C24.5495 22.54 23.6943 23.0796 22.8756 23.6715C21.3527 24.8025 20.1428 25.982 19.6632 26.4686C18.6114 27.5599 17.6798 28.7174 16.8718 29.9428C16.8288 30.0092 16.786 30.0756 16.7426 30.1443C16.7312 30.162 16.7203 30.1801 16.7089 30.1978C15.8778 31.5236 14.9927 33.2205 14.2638 35.2732C14.2091 35.433 14.1536 35.5922 14.102 35.7536C13.323 38.3873 15.0111 39.4363 16.9634 39.8178C16.9634 39.8178 18.4933 40.1136 20.6967 39.9514C20.8258 39.9405 20.9413 39.9294 21.0398 39.919C21.5963 39.8508 22.154 39.7911 22.706 39.6972C26.5072 39.0495 29.8677 37.4628 32.7375 34.8838C36.3501 31.6374 38.5265 27.5918 39.2024 22.7872C39.8798 17.9749 38.9301 13.4637 36.3252 9.35373Z" fill="#FDFDFD"/>
</svg>
