<svg width="170" height="50" viewBox="0 0 170 50" fill="none" xmlns="http://www.w3.org/2000/svg">
<g clip-path="url(#clip0)">
<path fill-rule="evenodd" clip-rule="evenodd" d="M8.19129 9.40046H11.431V5.94434H1.06226V9.40046H4.30258V21.8566H8.19129V9.40046Z" fill="white"/>
<path fill-rule="evenodd" clip-rule="evenodd" d="M24.6787 5.94434V14.2966C24.6787 16.3847 24.5345 18.6163 22.0148 18.6163C19.4948 18.6163 19.3503 16.3847 19.3503 14.2966V5.94434H15.3906V14.8724C15.3906 16.8879 15.5348 18.904 16.9745 20.4888C18.2706 21.784 20.2148 22.2163 22.0148 22.2163C23.7426 22.2163 25.7587 21.784 26.9826 20.4888C28.4948 18.904 28.5667 16.8879 28.5667 14.8724V5.94434H24.6787Z" fill="white"/>
<path fill-rule="evenodd" clip-rule="evenodd" d="M37.6388 9.11272H37.9985C39.2949 9.11272 40.7346 9.32821 40.7346 11.0563C40.7346 12.7847 39.2949 13.0724 37.9985 13.0724H37.6388V9.11272ZM41.5265 15.304C43.6865 14.9443 44.8388 13.0008 44.8388 10.8401C44.8388 7.45692 42.5346 5.94434 39.583 5.94434H33.7507V21.8566H37.6388V15.7363H37.7111L41.383 21.8566H46.2791L41.5265 15.304Z" fill="white"/>
<path fill-rule="evenodd" clip-rule="evenodd" d="M53.9106 12.4966V5.94434H49.9509V21.8566H53.9106V14.9443L58.9503 21.8566H64.0626L57.5106 13.4324L63.4867 5.94434H58.6625L53.9106 12.4966Z" fill="white"/>
<path fill-rule="evenodd" clip-rule="evenodd" d="M67.8066 21.8566H71.6947V5.94434H67.8066V21.8566Z" fill="white"/>
<path fill-rule="evenodd" clip-rule="evenodd" d="M86.6703 6.80786C85.3742 6.01592 83.5029 5.5127 81.991 5.5127C78.9668 5.5127 76.8064 7.59979 76.8064 10.8401C76.8064 13.9369 78.391 14.5846 80.8387 15.304C81.7022 15.5927 83.2152 15.9524 83.2152 17.1766C83.2152 18.2566 82.2787 18.7604 81.3426 18.7604C79.9748 18.7604 78.8226 18.0404 77.8868 17.1046L76.1587 20.4169C77.7426 21.5685 79.5432 22.2162 81.4868 22.2162C82.9984 22.2162 84.5829 21.784 85.7345 20.7766C86.9593 19.6959 87.3187 18.0404 87.3187 16.4566C87.3187 13.9369 85.6629 12.7846 83.5748 12.1362L82.5668 11.8482C81.919 11.5604 80.8387 11.2001 80.8387 10.2643C80.8387 9.40044 81.8468 8.9685 82.5668 8.9685C83.5029 8.9685 84.4387 9.40044 85.1587 10.0482L86.6703 6.80786Z" fill="white"/>
<path fill-rule="evenodd" clip-rule="evenodd" d="M95.7428 12.0643V5.94434H91.7834V21.8566H95.7428V15.304H101.358V21.8566H105.319V5.94434H101.358V12.0643H95.7428Z" fill="white"/>
<path fill-rule="evenodd" clip-rule="evenodd" d="M9.55839 38.3438H6.24678L7.90259 33.3042L9.55839 38.3438ZM10.5671 41.5122L11.5745 44.2487H15.751L10.0623 28.3364H5.81452L-0.0170898 44.2487H4.15904L5.1671 41.5122H10.5671Z" fill="white"/>
<path fill-rule="evenodd" clip-rule="evenodd" d="M18.6309 44.2487H22.5183V28.3364H18.6309V44.2487Z" fill="white"/>
<path fill-rule="evenodd" clip-rule="evenodd" d="M31.1587 31.5042H31.5184C32.8152 31.5042 34.2545 31.7926 34.2545 33.5197C34.2545 35.2484 32.8152 35.4645 31.5184 35.4645H31.1587V31.5042ZM35.0468 37.768C37.1345 37.3364 38.3587 35.4645 38.3587 33.2316C38.3587 29.8477 36.0549 28.3364 33.1023 28.3364H27.1987V44.2487H31.1587V38.1284L34.9029 44.2487H39.799L35.0468 37.768Z" fill="white"/>
<path fill-rule="evenodd" clip-rule="evenodd" d="M46.9983 28.3364H43.1106V44.2487H51.7509V40.7203H46.9983V28.3364Z" fill="white"/>
<path fill-rule="evenodd" clip-rule="evenodd" d="M55.2783 44.2487H59.167V28.3364H55.2783V44.2487Z" fill="white"/>
<path fill-rule="evenodd" clip-rule="evenodd" d="M64.0625 44.2487H67.9502V34.529H68.0228L75.2222 44.2487H79.1109V28.3364H75.2222V38.0561H75.1506L67.9502 28.3364H64.0625V44.2487Z" fill="white"/>
<path fill-rule="evenodd" clip-rule="evenodd" d="M92.7194 31.8645V28.3364H84.1506V44.2487H92.7194V40.7203H88.11V37.9842H92.5026V34.529H88.11V31.8645H92.7194Z" fill="white"/>
<path fill-rule="evenodd" clip-rule="evenodd" d="M107.047 29.2719C105.75 28.4799 103.879 27.9048 102.368 27.9048C99.3424 27.9048 97.1821 30.0638 97.1821 33.3041C97.1821 36.3283 98.766 37.0483 101.216 37.768C102.079 37.9841 103.59 38.4164 103.59 39.5687C103.59 40.7203 102.655 41.1525 101.72 41.1525C100.35 41.1525 99.2002 40.4319 98.2624 39.4961L96.5356 42.8803C98.1195 43.9606 99.9908 44.6803 101.862 44.6803C103.375 44.6803 104.96 44.2487 106.11 43.168C107.334 42.0883 107.694 40.5041 107.694 38.9203C107.694 36.3283 106.11 35.1761 103.952 34.529L103.014 34.2403C102.295 34.0238 101.216 33.6645 101.216 32.7277C101.216 31.8645 102.223 31.36 102.942 31.36C103.879 31.36 104.815 31.7925 105.536 32.4396L107.047 29.2719Z" fill="white"/>
<path fill-rule="evenodd" clip-rule="evenodd" d="M122.311 25.0243H122.664C122.664 18.3837 125.22 12.3685 129.344 8.01432C133.468 3.6598 139.153 0.969801 145.422 0.969478C151.728 0.969801 157.431 3.66045 161.564 8.01432C165.696 12.3688 168.253 18.3837 168.253 25.0243C168.253 31.6653 165.696 37.6621 161.564 41.9982C157.432 46.3346 151.729 49.0075 145.422 49.0079C139.152 49.0075 133.467 46.335 129.343 41.9985C125.22 37.6621 122.664 31.6653 122.664 25.0243H121.958C121.958 31.8479 124.585 38.0195 128.832 42.485C133.077 46.9508 138.948 49.714 145.422 49.714C151.931 49.714 157.821 46.9514 162.075 42.4853C166.331 38.0195 168.959 31.8479 168.959 25.0243C168.959 18.2011 166.331 12.0121 162.076 7.52851C157.822 3.04464 151.932 0.263672 145.422 0.263672C138.948 0.263672 133.076 3.04496 128.831 7.52883C124.585 12.0124 121.958 18.2011 121.958 25.0243H122.311Z" fill="white"/>
<path fill-rule="evenodd" clip-rule="evenodd" d="M152.407 19.6251C151.327 12.0644 145.135 8.39217 141.246 6.08862C137.647 4.07249 134.406 3.13636 134.335 3.35281C138.438 6.73636 141.029 11.9928 141.029 17.8967C141.029 27.617 133.975 35.5367 124.975 36.2567L125.551 37.1918C137.071 35.3212 167.959 29.4889 167.959 29.4889L168.03 28.7683L149.31 28.1212C151.327 25.8883 152.766 22.0728 152.407 19.6251Z" fill="white"/>
</g>
<defs>
<clipPath id="clip0">
<rect width="169.032" height="50" fill="white"/>
</clipPath>
</defs>
</svg>
