<svg width="236" height="72" viewBox="0 0 236 72" fill="none" xmlns="http://www.w3.org/2000/svg">
<path d="M26.7 71.4C34.6 71.4 41 69.2 46 64.8C51 60.4 53.5 54.5 53.5 47.1V0H39.7V46C39.7 53.3 35.6 57.9 26.7 57.9C17.8 57.9 13.7 53.3 13.7 46V0H0V47.1C0 54.5 2.5 60.4 7.5 64.8C12.5 69.2 18.9 71.4 26.7 71.4Z" fill="white"/>
<path d="M65.932 70H79.732V0H65.932V70Z" fill="white"/>
<path d="M143.79 71.4C151.69 71.4 158.09 69.2 163.09 64.8C168.09 60.4 170.59 54.5 170.59 47.1V0H156.79V46C156.79 53.3 152.69 57.9 143.79 57.9C134.89 57.9 130.79 53.3 130.79 46V0H117.09V47.1C117.09 54.5 119.59 60.4 124.59 64.8C129.59 69.2 135.99 71.4 143.79 71.4Z" fill="white"/>
<path d="M213.748 34L234.048 0H218.448L205.948 21L193.448 0H177.848L198.148 34.1L176.748 70H192.348L205.948 47.2L219.548 70H235.248L213.748 34Z" fill="white"/>
</svg>
